<?xml version="1.0" encoding="UTF-8" standalone="no"?>
<!-- Created with Inkscape (http://www.inkscape.org/) -->

<svg
   xmlns:dc="http://purl.org/dc/elements/1.1/"
   xmlns:cc="http://creativecommons.org/ns#"
   xmlns:rdf="http://www.w3.org/1999/02/22-rdf-syntax-ns#"
   xmlns:svg="http://www.w3.org/2000/svg"
   xmlns="http://www.w3.org/2000/svg"
   xmlns:sodipodi="http://sodipodi.sourceforge.net/DTD/sodipodi-0.dtd"
   xmlns:inkscape="http://www.inkscape.org/namespaces/inkscape"
   width="210mm"
   height="297mm"
   viewBox="0 0 744.09448819 1052.3622047"
   id="svg3365"
   version="1.1"
   inkscape:version="0.91 r"
   sodipodi:docname="dessin.svg">
  <defs
     id="defs3367" />
  <sodipodi:namedview
     id="base"
     pagecolor="#ffffff"
     bordercolor="#666666"
     borderopacity="1.0"
     inkscape:pageopacity="0.0"
     inkscape:pageshadow="2"
     inkscape:zoom="3.959798"
     inkscape:cx="537.39901"
     inkscape:cy="931.93848"
     inkscape:document-units="px"
     inkscape:current-layer="layer1"
     showgrid="false"
     inkscape:window-width="1301"
     inkscape:window-height="744"
     inkscape:window-x="65"
     inkscape:window-y="24"
     inkscape:window-maximized="1" />
  <metadata
     id="metadata3370">
    <rdf:RDF>
      <cc:Work
         rdf:about="">
        <dc:format>image/svg+xml</dc:format>
        <dc:type
           rdf:resource="http://purl.org/dc/dcmitype/StillImage" />
        <dc:title></dc:title>
      </cc:Work>
    </rdf:RDF>
  </metadata>
  <g
     inkscape:label="Calque 1"
     inkscape:groupmode="layer"
     id="layer1">
    <path
       style="fill:none;fill-opacity:1;fill-rule:evenodd;stroke:#000000;stroke-width:0.35433072;stroke-linecap:butt;stroke-linejoin:miter;stroke-miterlimit:4;stroke-dasharray:none;stroke-opacity:1"
       d="m 21.265551,20.493717 0,254.369133 254.369139,0 0,-123.83203 -11.21875,0 0,1.80664 -0.4707,0 0,-1.80664 -3.12891,0 0,1.80664 -0.4707,0 0,-1.80664 -3.13086,0 0,1.80664 -0.46875,0 0,-1.80664 -3.13086,0 0,1.80664 -0.47266,0 0,-1.80664 -3.1289,0 0,1.80664 -0.47071,0 0,-1.80664 -3.13086,0 0,1.80664 -0.4707,0 0,-1.80664 -3.1289,0 0,1.80664 -0.47071,0 0,-1.80664 -3.13086,0 0,1.80664 -0.4707,0 0,-1.80664 -3.12891,0 0,1.80664 -0.47265,0 0,-1.80664 -3.12891,0 0,1.80664 -0.47266,0 0,-1.80664 -3.1289,0 0,1.80664 -0.4707,0 0,-1.80664 -3.13086,0 0,1.80664 -0.46875,0 0,-1.80664 -3.13086,0 0,1.80664 -0.47071,0 0,-1.80664 -3.1289,0 0,1.80664 -0.47071,0 0,-1.80664 -3.13086,0 0,1.80664 -0.47265,0 0,-1.80664 -3.12891,0 0,1.80664 -0.4707,0 0,-1.80664 -3.13086,0 0,1.80664 -0.4707,0 0,-1.80664 -3.12891,0 0,1.80664 -0.4707,0 0,-1.80664 -3.12891,0 0,1.79688 -0.46875,0 0,-1.79688 -3.13086,0 0,1.79688 -0.47266,0 0,-1.79688 -3.13085,0 0,1.79688 -0.46875,0 0,-1.79688 -3.13086,0 0,1.79688 -0.47071,0 0,-1.79688 -3.1289,0 0,1.79688 -0.47071,0 0,-1.79688 -3.13086,0 0,1.79688 -0.4707,0 0,-1.79688 -3.1289,0 0,1.79688 -0.47071,0 0,-1.79688 -3.13086,0 0,1.79688 -0.47265,0 0,-1.79688 -3.12891,0 0,1.79688 -0.4707,0 0,-1.79688 -3.13086,0 0,1.79688 -0.46875,0 0,-1.79688 -3.13086,0 0,1.79688 -0.4707,0 0,-1.79688 -3.12891,0 0,1.79688 -0.4707,0 0,-1.79688 -3.13086,0 0,1.79688 -0.47266,0 0,-1.79688 -3.12891,0 0,1.79688 -0.4707,0 0,-1.79688 -3.13086,0 0,1.79688 -0.4707,0 0,-1.79688 -3.12891,0 0,1.79688 -0.4707,0 0,-1.79688 -3.13086,0 0,1.79688 -0.4707,0 0,-1.79688 -3.12891,0 0,1.79688 -0.4707,0 0,-1.79688 -3.13086,0 0,1.79688 -0.47071,0 0,-1.79688 -3.13085,0 0,1.79688 -0.47071,0 0,-1.79688 -3.1289,0 0,1.79688 -0.47071,0 0,-1.79688 -3.13086,0 0,1.79688 -0.4707,0 0,-1.79688 -3.12891,0 0,1.79688 -0.4707,0 0,-1.79688 -3.13086,0 0,1.79688 -0.4707,0 0,-1.79688 -1.66211,0 a 35.220501,35.220501 0 0 1 -35.050781,31.86914 35.220501,35.220501 0 0 1 -35.220704,-35.2207 35.220501,35.220501 0 0 1 35.220704,-35.2207 35.220501,35.220501 0 0 1 35.027341,31.87109 l 161.00586,0 0,-123.835933 -254.369139,0 z"
       id="rect4194-7-8-2-8-3-7"
       inkscape:connector-curvature="0" />
    <path
       style="opacity:1;fill:none;fill-opacity:1;stroke:#000000;stroke-width:0.38389409;stroke-miterlimit:4;stroke-dasharray:none;stroke-opacity:1"
       d="M 389.95898 109.01367 A 35.220501 35.220501 0 0 0 354.73828 144.23438 A 35.220501 35.220501 0 0 0 389.95898 179.45508 A 35.220501 35.220501 0 0 0 411.94336 171.74609 L 422.69336 171.74609 L 422.69336 173.54492 L 423.15625 173.54492 L 423.15625 171.74609 L 426.23633 171.74609 L 426.23633 173.54492 L 426.69922 173.54492 L 426.69922 171.74609 L 429.7793 171.74609 L 429.7793 173.54492 L 430.24219 173.54492 L 430.24219 171.74609 L 433.32227 171.74609 L 433.32227 173.54492 L 433.78516 173.54492 L 433.78516 171.74609 L 436.86523 171.74609 L 436.86523 173.54492 L 437.32812 173.54492 L 437.32812 171.74609 L 440.4082 171.74609 L 440.4082 173.54492 L 440.87305 173.54492 L 440.87305 171.74609 L 443.95312 171.74609 L 443.95312 173.54492 L 444.41602 173.54492 L 444.41602 171.74609 L 447.49609 171.74609 L 447.49609 173.54492 L 447.95898 173.54492 L 447.95898 171.74609 L 451.03906 171.74609 L 451.03906 173.54492 L 451.50195 173.54492 L 451.50195 171.74609 L 454.58203 171.74609 L 454.58203 173.54492 L 455.04492 173.54492 L 455.04492 171.74609 L 458.125 171.74609 L 458.125 173.54492 L 458.58789 173.54492 L 458.58789 171.74609 L 461.66797 171.74609 L 461.66797 173.54492 L 462.13281 173.54492 L 462.13281 171.74609 L 465.21289 171.74609 L 465.21289 173.54492 L 465.67578 173.54492 L 465.67578 171.74609 L 468.75586 171.74609 L 468.75586 173.54492 L 469.21875 173.54492 L 469.21875 171.74609 L 472.29883 171.74609 L 472.29883 173.54492 L 472.76172 173.54492 L 472.76172 171.74609 L 475.8418 171.74609 L 475.8418 173.54492 L 476.30469 173.54492 L 476.30469 171.74609 L 479.38477 171.74609 L 479.38477 173.54492 L 479.84961 173.54492 L 479.84961 171.74609 L 482.92969 171.74609 L 482.92969 173.54492 L 483.39258 173.54492 L 483.39258 171.74609 L 486.47266 171.74609 L 486.47266 173.54492 L 486.93555 173.54492 L 486.93555 171.74609 L 490.01562 171.74609 L 490.01562 173.54492 L 490.47852 173.54492 L 490.47852 171.74609 L 493.55859 171.74609 L 493.55859 173.54492 L 494.02148 173.54492 L 494.02148 171.74609 L 497.10156 171.74609 L 497.10156 173.54492 L 497.56445 173.54492 L 497.56445 171.74609 L 500.64453 171.74609 L 500.64453 173.54492 L 501.10938 173.54492 L 501.10938 171.74609 L 504.18945 171.74609 L 504.18945 173.54492 L 504.65234 173.54492 L 504.65234 171.74609 L 507.73047 171.74609 L 507.73047 173.55469 L 508.19336 173.55469 L 508.19336 171.74609 L 511.27344 171.74609 L 511.27344 173.55469 L 511.73633 173.55469 L 511.73633 171.74609 L 514.81641 171.74609 L 514.81641 173.55469 L 515.2793 173.55469 L 515.2793 171.74609 L 518.35938 171.74609 L 518.35938 173.55469 L 518.82422 173.55469 L 518.82422 171.74609 L 521.9043 171.74609 L 521.9043 173.55469 L 522.36719 173.55469 L 522.36719 171.74609 L 525.44727 171.74609 L 525.44727 173.55469 L 525.91016 173.55469 L 525.91016 171.74609 L 528.99023 171.74609 L 528.99023 173.55469 L 529.45312 173.55469 L 529.45312 171.74609 L 532.5332 171.74609 L 532.5332 173.55469 L 532.99609 173.55469 L 532.99609 171.74609 L 536.07617 171.74609 L 536.07617 173.55469 L 536.54102 173.55469 L 536.54102 171.74609 L 539.61914 171.74609 L 539.61914 173.55469 L 540.08398 173.55469 L 540.08398 171.74609 L 543.16406 171.74609 L 543.16406 173.55469 L 543.62695 173.55469 L 543.62695 171.74609 L 546.70703 171.74609 L 546.70703 173.55469 L 547.16992 173.55469 L 547.16992 171.74609 L 550.25 171.74609 L 550.25 173.55469 L 550.71289 173.55469 L 550.71289 171.74609 L 553.79297 171.74609 L 553.79297 173.55469 L 554.25586 173.55469 L 554.25586 171.74609 L 557.33594 171.74609 L 557.33594 173.55469 L 557.80078 173.55469 L 557.80078 171.74609 L 560.88086 171.74609 L 560.88086 173.55469 L 561.34375 173.55469 L 561.34375 171.74609 L 564.42383 171.74609 L 564.42383 173.55469 L 564.88672 173.55469 L 564.88672 171.74609 L 567.9668 171.74609 L 567.9668 173.55469 L 568.42969 173.55469 L 568.42969 171.74609 L 586.80273 171.74609 L 586.80273 165.04297 L 418.32617 165.04297 A 35.220501 35.220501 0 0 0 422.18359 158.40039 L 424.89844 158.40039 L 424.89844 160.19922 L 425.36133 160.19922 L 425.36133 158.40039 L 428.44141 158.40039 L 428.44141 160.19922 L 428.9043 160.19922 L 428.9043 158.40039 L 431.98438 158.40039 L 431.98438 160.19922 L 432.44727 160.19922 L 432.44727 158.40039 L 435.52734 158.40039 L 435.52734 160.19922 L 435.99023 160.19922 L 435.99023 158.40039 L 439.07031 158.40039 L 439.07031 160.19922 L 439.5332 160.19922 L 439.5332 158.40039 L 442.61328 158.40039 L 442.61328 160.19922 L 443.07812 160.19922 L 443.07812 158.40039 L 446.1582 158.40039 L 446.1582 160.19922 L 446.62109 160.19922 L 446.62109 158.40039 L 449.70117 158.40039 L 449.70117 160.19922 L 450.16406 160.19922 L 450.16406 158.40039 L 453.24414 158.40039 L 453.24414 160.19922 L 453.70703 160.19922 L 453.70703 158.40039 L 456.78711 158.40039 L 456.78711 160.19922 L 457.25 160.19922 L 457.25 158.40039 L 460.33008 158.40039 L 460.33008 160.19922 L 460.79297 160.19922 L 460.79297 158.40039 L 463.87305 158.40039 L 463.87305 160.19922 L 464.33789 160.19922 L 464.33789 158.40039 L 467.41797 158.40039 L 467.41797 160.19922 L 467.88086 160.19922 L 467.88086 158.40039 L 470.96094 158.40039 L 470.96094 160.19922 L 471.42383 160.19922 L 471.42383 158.40039 L 474.50391 158.40039 L 474.50391 160.19922 L 474.9668 160.19922 L 474.9668 158.40039 L 478.04688 158.40039 L 478.04688 160.19922 L 478.50977 160.19922 L 478.50977 158.40039 L 481.58984 158.40039 L 481.58984 160.19922 L 482.05469 160.19922 L 482.05469 158.40039 L 485.13477 158.40039 L 485.13477 160.19922 L 485.59766 160.19922 L 485.59766 158.40039 L 488.67773 158.40039 L 488.67773 160.19922 L 489.14062 160.19922 L 489.14062 158.40039 L 492.2207 158.40039 L 492.2207 160.19922 L 492.68359 160.19922 L 492.68359 158.40039 L 495.76367 158.40039 L 495.76367 160.19922 L 496.22656 160.19922 L 496.22656 158.40039 L 499.30664 158.40039 L 499.30664 160.19922 L 499.76953 160.19922 L 499.76953 158.40039 L 502.84961 158.40039 L 502.84961 160.19922 L 503.31445 160.19922 L 503.31445 158.40039 L 506.39453 158.40039 L 506.39453 160.19922 L 506.85742 160.19922 L 506.85742 158.40039 L 509.93555 158.40039 L 509.93555 160.20898 L 510.39844 160.20898 L 510.39844 158.40039 L 513.47852 158.40039 L 513.47852 160.20898 L 513.94141 160.20898 L 513.94141 158.40039 L 517.02148 158.40039 L 517.02148 160.20898 L 517.48438 160.20898 L 517.48438 158.40039 L 520.56445 158.40039 L 520.56445 160.20898 L 521.0293 160.20898 L 521.0293 158.40039 L 524.10938 158.40039 L 524.10938 160.20898 L 524.57227 160.20898 L 524.57227 158.40039 L 527.65234 158.40039 L 527.65234 160.20898 L 528.11523 160.20898 L 528.11523 158.40039 L 531.19531 158.40039 L 531.19531 160.20898 L 531.6582 160.20898 L 531.6582 158.40039 L 534.73828 158.40039 L 534.73828 160.20898 L 535.20117 160.20898 L 535.20117 158.40039 L 538.28125 158.40039 L 538.28125 160.20898 L 538.74609 160.20898 L 538.74609 158.40039 L 541.82422 158.40039 L 541.82422 160.20898 L 542.28906 160.20898 L 542.28906 158.40039 L 545.36914 158.40039 L 545.36914 160.20898 L 545.83203 160.20898 L 545.83203 158.40039 L 548.91211 158.40039 L 548.91211 160.20898 L 549.375 160.20898 L 549.375 158.40039 L 552.45508 158.40039 L 552.45508 160.20898 L 552.91797 160.20898 L 552.91797 158.40039 L 555.99805 158.40039 L 555.99805 160.20898 L 556.46094 160.20898 L 556.46094 158.40039 L 559.54102 158.40039 L 559.54102 160.20898 L 560.00586 160.20898 L 560.00586 158.40039 L 563.08594 158.40039 L 563.08594 160.20898 L 563.54883 160.20898 L 563.54883 158.40039 L 566.62891 158.40039 L 566.62891 160.20898 L 567.0918 160.20898 L 567.0918 158.40039 L 570.17188 158.40039 L 570.17188 160.20898 L 570.63477 160.20898 L 570.63477 158.40039 L 589.00781 158.40039 L 589.00781 151.69727 L 424.35938 151.69727 A 35.220501 35.220501 0 0 0 425.17969 144.23438 A 35.220501 35.220501 0 0 0 425.16406 143.77344 L 426.75195 143.77344 L 426.75195 145.57227 L 427.21484 145.57227 L 427.21484 143.77344 L 430.29492 143.77344 L 430.29492 145.57227 L 430.75781 145.57227 L 430.75781 143.77344 L 433.83789 143.77344 L 433.83789 145.57227 L 434.30078 145.57227 L 434.30078 143.77344 L 437.38086 143.77344 L 437.38086 145.57227 L 437.84375 145.57227 L 437.84375 143.77344 L 440.92383 143.77344 L 440.92383 145.57227 L 441.38672 145.57227 L 441.38672 143.77344 L 444.4668 143.77344 L 444.4668 145.57227 L 444.93164 145.57227 L 444.93164 143.77344 L 448.01172 143.77344 L 448.01172 145.57227 L 448.47461 145.57227 L 448.47461 143.77344 L 451.55469 143.77344 L 451.55469 145.57227 L 452.01758 145.57227 L 452.01758 143.77344 L 455.09766 143.77344 L 455.09766 145.57227 L 455.56055 145.57227 L 455.56055 143.77344 L 458.64062 143.77344 L 458.64062 145.57227 L 459.10352 145.57227 L 459.10352 143.77344 L 462.18359 143.77344 L 462.18359 145.57227 L 462.64648 145.57227 L 462.64648 143.77344 L 465.72656 143.77344 L 465.72656 145.57227 L 466.19141 145.57227 L 466.19141 143.77344 L 469.27148 143.77344 L 469.27148 145.57227 L 469.73438 145.57227 L 469.73438 143.77344 L 472.81445 143.77344 L 472.81445 145.57227 L 473.27734 145.57227 L 473.27734 143.77344 L 476.35742 143.77344 L 476.35742 145.57227 L 476.82031 145.57227 L 476.82031 143.77344 L 479.90039 143.77344 L 479.90039 145.57227 L 480.36328 145.57227 L 480.36328 143.77344 L 483.44336 143.77344 L 483.44336 145.57227 L 483.9082 145.57227 L 483.9082 143.77344 L 486.98828 143.77344 L 486.98828 145.57227 L 487.45117 145.57227 L 487.45117 143.77344 L 490.53125 143.77344 L 490.53125 145.57227 L 490.99414 145.57227 L 490.99414 143.77344 L 494.07422 143.77344 L 494.07422 145.57227 L 494.53711 145.57227 L 494.53711 143.77344 L 497.61719 143.77344 L 497.61719 145.57227 L 498.08008 145.57227 L 498.08008 143.77344 L 501.16016 143.77344 L 501.16016 145.57227 L 501.62305 145.57227 L 501.62305 143.77344 L 504.70312 143.77344 L 504.70312 145.57227 L 505.16797 145.57227 L 505.16797 143.77344 L 508.24805 143.77344 L 508.24805 145.57227 L 508.71094 145.57227 L 508.71094 143.77344 L 511.78906 143.77344 L 511.78906 145.58203 L 512.25195 145.58203 L 512.25195 143.77344 L 515.33203 143.77344 L 515.33203 145.58203 L 515.79492 145.58203 L 515.79492 143.77344 L 518.875 143.77344 L 518.875 145.58203 L 519.33789 145.58203 L 519.33789 143.77344 L 522.41797 143.77344 L 522.41797 145.58203 L 522.88281 145.58203 L 522.88281 143.77344 L 525.96289 143.77344 L 525.96289 145.58203 L 526.42578 145.58203 L 526.42578 143.77344 L 529.50586 143.77344 L 529.50586 145.58203 L 529.96875 145.58203 L 529.96875 143.77344 L 533.04883 143.77344 L 533.04883 145.58203 L 533.51172 145.58203 L 533.51172 143.77344 L 536.5918 143.77344 L 536.5918 145.58203 L 537.05469 145.58203 L 537.05469 143.77344 L 540.13477 143.77344 L 540.13477 145.58203 L 540.59961 145.58203 L 540.59961 143.77344 L 543.67773 143.77344 L 543.67773 145.58203 L 544.14258 145.58203 L 544.14258 143.77344 L 547.22266 143.77344 L 547.22266 145.58203 L 547.68555 145.58203 L 547.68555 143.77344 L 550.76562 143.77344 L 550.76562 145.58203 L 551.22852 145.58203 L 551.22852 143.77344 L 554.30859 143.77344 L 554.30859 145.58203 L 554.77148 145.58203 L 554.77148 143.77344 L 557.85156 143.77344 L 557.85156 145.58203 L 558.31445 145.58203 L 558.31445 143.77344 L 561.39453 143.77344 L 561.39453 145.58203 L 561.85938 145.58203 L 561.85938 143.77344 L 564.93945 143.77344 L 564.93945 145.58203 L 565.40234 145.58203 L 565.40234 143.77344 L 568.48242 143.77344 L 568.48242 145.58203 L 568.94531 145.58203 L 568.94531 143.77344 L 572.02539 143.77344 L 572.02539 145.58203 L 572.48828 145.58203 L 572.48828 143.77344 L 590.86133 143.77344 L 590.86133 137.07031 L 424.4043 137.07031 A 35.220501 35.220501 0 0 0 422.57617 131.00391 L 424.23047 131.00391 L 424.23047 132.80273 L 424.69336 132.80273 L 424.69336 131.00391 L 427.77344 131.00391 L 427.77344 132.80273 L 428.23633 132.80273 L 428.23633 131.00391 L 431.31641 131.00391 L 431.31641 132.80273 L 431.7793 132.80273 L 431.7793 131.00391 L 434.85938 131.00391 L 434.85938 132.80273 L 435.32227 132.80273 L 435.32227 131.00391 L 438.40234 131.00391 L 438.40234 132.80273 L 438.86523 132.80273 L 438.86523 131.00391 L 441.94531 131.00391 L 441.94531 132.80273 L 442.41016 132.80273 L 442.41016 131.00391 L 445.49023 131.00391 L 445.49023 132.80273 L 445.95312 132.80273 L 445.95312 131.00391 L 449.0332 131.00391 L 449.0332 132.80273 L 449.49609 132.80273 L 449.49609 131.00391 L 452.57617 131.00391 L 452.57617 132.80273 L 453.03906 132.80273 L 453.03906 131.00391 L 456.11914 131.00391 L 456.11914 132.80273 L 456.58203 132.80273 L 456.58203 131.00391 L 459.66211 131.00391 L 459.66211 132.80273 L 460.125 132.80273 L 460.125 131.00391 L 463.20508 131.00391 L 463.20508 132.80273 L 463.66992 132.80273 L 463.66992 131.00391 L 466.75 131.00391 L 466.75 132.80273 L 467.21289 132.80273 L 467.21289 131.00391 L 470.29297 131.00391 L 470.29297 132.80273 L 470.75586 132.80273 L 470.75586 131.00391 L 473.83594 131.00391 L 473.83594 132.80273 L 474.29883 132.80273 L 474.29883 131.00391 L 477.37891 131.00391 L 477.37891 132.80273 L 477.8418 132.80273 L 477.8418 131.00391 L 480.92188 131.00391 L 480.92188 132.80273 L 481.38672 132.80273 L 481.38672 131.00391 L 484.4668 131.00391 L 484.4668 132.80273 L 484.92969 132.80273 L 484.92969 131.00391 L 488.00977 131.00391 L 488.00977 132.80273 L 488.47266 132.80273 L 488.47266 131.00391 L 491.55273 131.00391 L 491.55273 132.80273 L 492.01562 132.80273 L 492.01562 131.00391 L 495.0957 131.00391 L 495.0957 132.80273 L 495.55859 132.80273 L 495.55859 131.00391 L 498.63867 131.00391 L 498.63867 132.80273 L 499.10156 132.80273 L 499.10156 131.00391 L 502.18164 131.00391 L 502.18164 132.80273 L 502.64648 132.80273 L 502.64648 131.00391 L 505.72656 131.00391 L 505.72656 132.80273 L 506.18945 132.80273 L 506.18945 131.00391 L 509.26758 131.00391 L 509.26758 132.8125 L 509.73047 132.8125 L 509.73047 131.00391 L 512.81055 131.00391 L 512.81055 132.8125 L 513.27344 132.8125 L 513.27344 131.00391 L 516.35352 131.00391 L 516.35352 132.8125 L 516.81641 132.8125 L 516.81641 131.00391 L 519.89648 131.00391 L 519.89648 132.8125 L 520.36133 132.8125 L 520.36133 131.00391 L 523.44141 131.00391 L 523.44141 132.8125 L 523.9043 132.8125 L 523.9043 131.00391 L 526.98438 131.00391 L 526.98438 132.8125 L 527.44727 132.8125 L 527.44727 131.00391 L 530.52734 131.00391 L 530.52734 132.8125 L 530.99023 132.8125 L 530.99023 131.00391 L 534.07031 131.00391 L 534.07031 132.8125 L 534.5332 132.8125 L 534.5332 131.00391 L 537.61328 131.00391 L 537.61328 132.8125 L 538.07812 132.8125 L 538.07812 131.00391 L 541.15625 131.00391 L 541.15625 132.8125 L 541.62109 132.8125 L 541.62109 131.00391 L 544.70117 131.00391 L 544.70117 132.8125 L 545.16406 132.8125 L 545.16406 131.00391 L 548.24414 131.00391 L 548.24414 132.8125 L 548.70703 132.8125 L 548.70703 131.00391 L 551.78711 131.00391 L 551.78711 132.8125 L 552.25 132.8125 L 552.25 131.00391 L 555.33008 131.00391 L 555.33008 132.8125 L 555.79297 132.8125 L 555.79297 131.00391 L 558.87305 131.00391 L 558.87305 132.8125 L 559.33789 132.8125 L 559.33789 131.00391 L 562.41797 131.00391 L 562.41797 132.8125 L 562.88086 132.8125 L 562.88086 131.00391 L 565.96094 131.00391 L 565.96094 132.8125 L 566.42383 132.8125 L 566.42383 131.00391 L 569.50391 131.00391 L 569.50391 132.8125 L 569.9668 132.8125 L 569.9668 131.00391 L 588.33984 131.00391 L 588.33984 124.30078 L 418.94922 124.30078 A 35.220501 35.220501 0 0 0 412.70312 117.34766 L 423.46484 117.34766 L 423.46484 119.14648 L 423.92773 119.14648 L 423.92773 117.34766 L 427.00781 117.34766 L 427.00781 119.14648 L 427.4707 119.14648 L 427.4707 117.34766 L 430.55078 117.34766 L 430.55078 119.14648 L 431.01367 119.14648 L 431.01367 117.34766 L 434.09375 117.34766 L 434.09375 119.14648 L 434.55664 119.14648 L 434.55664 117.34766 L 437.63672 117.34766 L 437.63672 119.14648 L 438.09961 119.14648 L 438.09961 117.34766 L 441.17969 117.34766 L 441.17969 119.14648 L 441.64453 119.14648 L 441.64453 117.34766 L 444.72461 117.34766 L 444.72461 119.14648 L 445.1875 119.14648 L 445.1875 117.34766 L 448.26758 117.34766 L 448.26758 119.14648 L 448.73047 119.14648 L 448.73047 117.34766 L 451.81055 117.34766 L 451.81055 119.14648 L 452.27344 119.14648 L 452.27344 117.34766 L 455.35352 117.34766 L 455.35352 119.14648 L 455.81641 119.14648 L 455.81641 117.34766 L 458.89648 117.34766 L 458.89648 119.14648 L 459.35938 119.14648 L 459.35938 117.34766 L 462.43945 117.34766 L 462.43945 119.14648 L 462.9043 119.14648 L 462.9043 117.34766 L 465.98438 117.34766 L 465.98438 119.14648 L 466.44727 119.14648 L 466.44727 117.34766 L 469.52734 117.34766 L 469.52734 119.14648 L 469.99023 119.14648 L 469.99023 117.34766 L 473.07031 117.34766 L 473.07031 119.14648 L 473.5332 119.14648 L 473.5332 117.34766 L 476.61328 117.34766 L 476.61328 119.14648 L 477.07617 119.14648 L 477.07617 117.34766 L 480.15625 117.34766 L 480.15625 119.14648 L 480.62109 119.14648 L 480.62109 117.34766 L 483.70117 117.34766 L 483.70117 119.14648 L 484.16406 119.14648 L 484.16406 117.34766 L 487.24414 117.34766 L 487.24414 119.14648 L 487.70703 119.14648 L 487.70703 117.34766 L 490.78711 117.34766 L 490.78711 119.14648 L 491.25 119.14648 L 491.25 117.34766 L 494.33008 117.34766 L 494.33008 119.14648 L 494.79297 119.14648 L 494.79297 117.34766 L 497.87305 117.34766 L 497.87305 119.14648 L 498.33594 119.14648 L 498.33594 117.34766 L 501.41602 117.34766 L 501.41602 119.14648 L 501.88086 119.14648 L 501.88086 117.34766 L 504.96094 117.34766 L 504.96094 119.14648 L 505.42383 119.14648 L 505.42383 117.34766 L 508.50195 117.34766 L 508.50195 119.15625 L 508.96484 119.15625 L 508.96484 117.34766 L 512.04492 117.34766 L 512.04492 119.15625 L 512.50781 119.15625 L 512.50781 117.34766 L 515.58789 117.34766 L 515.58789 119.15625 L 516.05078 119.15625 L 516.05078 117.34766 L 519.13086 117.34766 L 519.13086 119.15625 L 519.5957 119.15625 L 519.5957 117.34766 L 522.67578 117.34766 L 522.67578 119.15625 L 523.13867 119.15625 L 523.13867 117.34766 L 526.21875 117.34766 L 526.21875 119.15625 L 526.68164 119.15625 L 526.68164 117.34766 L 529.76172 117.34766 L 529.76172 119.15625 L 530.22461 119.15625 L 530.22461 117.34766 L 533.30469 117.34766 L 533.30469 119.15625 L 533.76758 119.15625 L 533.76758 117.34766 L 536.84766 117.34766 L 536.84766 119.15625 L 537.3125 119.15625 L 537.3125 117.34766 L 540.39062 117.34766 L 540.39062 119.15625 L 540.85547 119.15625 L 540.85547 117.34766 L 543.93555 117.34766 L 543.93555 119.15625 L 544.39844 119.15625 L 544.39844 117.34766 L 547.47852 117.34766 L 547.47852 119.15625 L 547.94141 119.15625 L 547.94141 117.34766 L 551.02148 117.34766 L 551.02148 119.15625 L 551.48438 119.15625 L 551.48438 117.34766 L 554.56445 117.34766 L 554.56445 119.15625 L 555.02734 119.15625 L 555.02734 117.34766 L 558.10742 117.34766 L 558.10742 119.15625 L 558.57227 119.15625 L 558.57227 117.34766 L 561.65234 117.34766 L 561.65234 119.15625 L 562.11523 119.15625 L 562.11523 117.34766 L 565.19531 117.34766 L 565.19531 119.15625 L 565.6582 119.15625 L 565.6582 117.34766 L 568.73828 117.34766 L 568.73828 119.15625 L 569.20117 119.15625 L 569.20117 117.34766 L 587.57422 117.34766 L 587.57422 110.64453 L 400.52148 110.64453 A 35.220501 35.220501 0 0 0 389.95898 109.01367 z "
       id="rect3346-7-3-5-8" />
    <rect
       style="fill:none;fill-opacity:1;fill-rule:evenodd;stroke:#000000;stroke-width:0.35433072;stroke-linecap:butt;stroke-linejoin:miter;stroke-miterlimit:4;stroke-dasharray:none;stroke-opacity:1"
       id="rect4194-7-8-2"
       width="254.3694"
       height="254.36942"
       x="330.4144"
       y="17.05036"
       rx="0"
       ry="0" />
  </g>
</svg>
