<svg xmlns="http://www.w3.org/2000/svg" version="1.1" width="297.7mm" height="202.7mm" viewBox = " 0 0 1054.843387 718.228937" >
<!-- Front--> 
<g transform="translate(22.5000185, 22.5000185) " > 
<polygon style="stroke:#000000; fill:none; stroke-width:0.90000074" points="0, 0 57.5787875, 0 57.5787875, 17.716549999999998 115.157575, 17.716549999999998 115.157575, 0 150.59067499999998, 0 150.59067499999998, 17.716549999999998 186.023775, 17.716549999999998 186.023775, 0 221.45687499999997, 0 221.45687499999997, 17.716549999999998 279.03566249999994, 17.716549999999998 279.03566249999994, 0 336.61445, 0 336.61445, 57.5787875 318.8979, 57.5787875 318.8979, 115.157575 336.61445, 115.157575 336.61445, 150.59067499999998 318.8979, 150.59067499999998 318.8979, 186.023775 336.61445, 186.023775 336.61445, 221.45687499999997 318.8979, 221.45687499999997 318.8979, 279.03566249999994 336.61445, 279.03566249999994 336.61445, 336.61445 279.03566249999994, 336.61445 279.03566249999994, 318.8979 221.45687499999997, 318.8979 221.45687499999997, 336.61445 186.023775, 336.61445 186.023775, 318.8979 150.59067499999998, 318.8979 150.59067499999998, 336.61445 115.157575, 336.61445 115.157575, 318.8979 57.5787875, 318.8979 57.5787875, 336.61445 0, 336.61445 0, 279.03566249999994 17.716549999999998, 279.03566249999994 17.716549999999998, 221.45687499999997 0, 221.45687499999997 0, 186.023775 17.716549999999998, 186.023775 17.716549999999998, 150.59067499999998 0, 150.59067499999998 0, 115.157575 17.716549999999998, 115.157575 17.716549999999998, 57.5787875 0, 57.5787875 "/> 
</g>
<!-- Back--> 
<g transform="translate(359.1144685, 22.5000185) " > 
<polygon style="stroke:#000000; fill:none; stroke-width:0.90000074" points="0, 0 57.5787875, 0 57.5787875, 17.716549999999998 115.157575, 17.716549999999998 115.157575, 0 150.59067499999998, 0 150.59067499999998, 17.716549999999998 186.023775, 17.716549999999998 186.023775, 0 221.45687499999997, 0 221.45687499999997, 17.716549999999998 279.03566249999994, 17.716549999999998 279.03566249999994, 0 336.61445, 0 336.61445, 57.5787875 318.8979, 57.5787875 318.8979, 115.157575 336.61445, 115.157575 336.61445, 150.59067499999998 318.8979, 150.59067499999998 318.8979, 186.023775 336.61445, 186.023775 336.61445, 221.45687499999997 318.8979, 221.45687499999997 318.8979, 279.03566249999994 336.61445, 279.03566249999994 336.61445, 336.61445 279.03566249999994, 336.61445 279.03566249999994, 318.8979 221.45687499999997, 318.8979 221.45687499999997, 336.61445 186.023775, 336.61445 186.023775, 318.8979 150.59067499999998, 318.8979 150.59067499999998, 336.61445 115.157575, 336.61445 115.157575, 318.8979 57.5787875, 318.8979 57.5787875, 336.61445 0, 336.61445 0, 279.03566249999994 17.716549999999998, 279.03566249999994 17.716549999999998, 221.45687499999997 0, 221.45687499999997 0, 186.023775 17.716549999999998, 186.023775 17.716549999999998, 150.59067499999998 0, 150.59067499999998 0, 115.157575 17.716549999999998, 115.157575 17.716549999999998, 57.5787875 0, 57.5787875 "/> 
</g>
<!-- Left--> 
<g transform="translate(695.7289185, 22.5000185) " > 
<polygon style="stroke:#000000; fill:none; stroke-width:0.90000074" points="17.716549999999998, 0 57.5787875, 0 57.5787875, 17.716549999999998 115.157575, 17.716549999999998 115.157575, 0 150.59067499999998, 0 150.59067499999998, 17.716549999999998 186.023775, 17.716549999999998 186.023775, 0 221.45687499999997, 0 221.45687499999997, 17.716549999999998 279.03566249999994, 17.716549999999998 279.03566249999994, 0 318.8979, 0 318.8979, 57.5787875 336.61445, 57.5787875 336.61445, 115.157575 318.8979, 115.157575 318.8979, 150.59067499999998 336.61445, 150.59067499999998 336.61445, 186.023775 318.8979, 186.023775 318.8979, 221.45687499999997 336.61445, 221.45687499999997 336.61445, 279.03566249999994 318.8979, 279.03566249999994 318.8979, 336.61445 279.03566249999994, 336.61445 279.03566249999994, 318.8979 221.45687499999997, 318.8979 221.45687499999997, 336.61445 186.023775, 336.61445 186.023775, 318.8979 150.59067499999998, 318.8979 150.59067499999998, 336.61445 115.157575, 336.61445 115.157575, 318.8979 57.5787875, 318.8979 57.5787875, 336.61445 17.716549999999998, 336.61445 17.716549999999998, 279.03566249999994 0, 279.03566249999994 0, 221.45687499999997 17.716549999999998, 221.45687499999997 17.716549999999998, 186.023775 0, 186.023775 0, 150.59067499999998 17.716549999999998, 150.59067499999998 17.716549999999998, 115.157575 0, 115.157575 0, 57.5787875 17.716549999999998, 57.5787875 "/> 
</g>
<!-- Right--> 
<g transform="translate(695.7289185, 359.1144685) " > 
<polygon style="stroke:#000000; fill:none; stroke-width:0.90000074" points="17.716549999999998, 0 57.5787875, 0 57.5787875, 17.716549999999998 115.157575, 17.716549999999998 115.157575, 0 150.59067499999998, 0 150.59067499999998, 17.716549999999998 186.023775, 17.716549999999998 186.023775, 0 221.45687499999997, 0 221.45687499999997, 17.716549999999998 279.03566249999994, 17.716549999999998 279.03566249999994, 0 318.8979, 0 318.8979, 57.5787875 336.61445, 57.5787875 336.61445, 115.157575 318.8979, 115.157575 318.8979, 150.59067499999998 336.61445, 150.59067499999998 336.61445, 186.023775 318.8979, 186.023775 318.8979, 221.45687499999997 336.61445, 221.45687499999997 336.61445, 279.03566249999994 318.8979, 279.03566249999994 318.8979, 336.61445 279.03566249999994, 336.61445 279.03566249999994, 318.8979 221.45687499999997, 318.8979 221.45687499999997, 336.61445 186.023775, 336.61445 186.023775, 318.8979 150.59067499999998, 318.8979 150.59067499999998, 336.61445 115.157575, 336.61445 115.157575, 318.8979 57.5787875, 318.8979 57.5787875, 336.61445 17.716549999999998, 336.61445 17.716549999999998, 279.03566249999994 0, 279.03566249999994 0, 221.45687499999997 17.716549999999998, 221.45687499999997 17.716549999999998, 186.023775 0, 186.023775 0, 150.59067499999998 17.716549999999998, 150.59067499999998 17.716549999999998, 115.157575 0, 115.157575 0, 57.5787875 17.716549999999998, 57.5787875 "/> 
</g>
<!-- Top--> 
<g transform="translate(22.5000185, 359.1144685) " > 
<polygon style="stroke:#000000; fill:none; stroke-width:0.90000074" points="17.716549999999998, 17.716549999999998 57.5787875, 17.716549999999998 57.5787875, 0 115.157575, 0 115.157575, 17.716549999999998 150.59067499999998, 17.716549999999998 150.59067499999998, 0 186.023775, 0 186.023775, 17.716549999999998 221.45687499999997, 17.716549999999998 221.45687499999997, 0 279.03566249999994, 0 279.03566249999994, 17.716549999999998 318.8979, 17.716549999999998 318.8979, 57.5787875 336.61445, 57.5787875 336.61445, 115.157575 318.8979, 115.157575 318.8979, 150.59067499999998 336.61445, 150.59067499999998 336.61445, 186.023775 318.8979, 186.023775 318.8979, 221.45687499999997 336.61445, 221.45687499999997 336.61445, 279.03566249999994 318.8979, 279.03566249999994 318.8979, 318.8979 279.03566249999994, 318.8979 279.03566249999994, 336.61445 221.45687499999997, 336.61445 221.45687499999997, 318.8979 186.023775, 318.8979 186.023775, 336.61445 150.59067499999998, 336.61445 150.59067499999998, 318.8979 115.157575, 318.8979 115.157575, 336.61445 57.5787875, 336.61445 57.5787875, 318.8979 17.716549999999998, 318.8979 17.716549999999998, 279.03566249999994 0, 279.03566249999994 0, 221.45687499999997 17.716549999999998, 221.45687499999997 17.716549999999998, 186.023775 0, 186.023775 0, 150.59067499999998 17.716549999999998, 150.59067499999998 17.716549999999998, 115.157575 0, 115.157575 0, 57.5787875 17.716549999999998, 57.5787875 "/> 
</g>
<!-- Bottom--> 
<g transform="translate(359.1144685, 359.1144685) " > 
<polygon style="stroke:#000000; fill:none; stroke-width:0.90000074" points="17.716549999999998, 17.716549999999998 57.5787875, 17.716549999999998 57.5787875, 0 115.157575, 0 115.157575, 17.716549999999998 150.59067499999998, 17.716549999999998 150.59067499999998, 0 186.023775, 0 186.023775, 17.716549999999998 221.45687499999997, 17.716549999999998 221.45687499999997, 0 279.03566249999994, 0 279.03566249999994, 17.716549999999998 318.8979, 17.716549999999998 318.8979, 57.5787875 336.61445, 57.5787875 336.61445, 115.157575 318.8979, 115.157575 318.8979, 150.59067499999998 336.61445, 150.59067499999998 336.61445, 186.023775 318.8979, 186.023775 318.8979, 221.45687499999997 336.61445, 221.45687499999997 336.61445, 279.03566249999994 318.8979, 279.03566249999994 318.8979, 318.8979 279.03566249999994, 318.8979 279.03566249999994, 336.61445 221.45687499999997, 336.61445 221.45687499999997, 318.8979 186.023775, 318.8979 186.023775, 336.61445 150.59067499999998, 336.61445 150.59067499999998, 318.8979 115.157575, 318.8979 115.157575, 336.61445 57.5787875, 336.61445 57.5787875, 318.8979 17.716549999999998, 318.8979 17.716549999999998, 279.03566249999994 0, 279.03566249999994 0, 221.45687499999997 17.716549999999998, 221.45687499999997 17.716549999999998, 186.023775 0, 186.023775 0, 150.59067499999998 17.716549999999998, 150.59067499999998 17.716549999999998, 115.157575 0, 115.157575 0, 57.5787875 17.716549999999998, 57.5787875 "/> 
</g></svg>